<svg xmlns="http://www.w3.org/2000/svg" viewBox="0 0 256 256" role="img" aria-labelledby="title desc">
  <title id="title">Paper Reader</title>
  <desc id="desc">A polished desktop app icon showing an academic paper, reader lens, and local library shelves.</desc>
  <defs>
    <linearGradient id="bg" x1="42" y1="18" x2="214" y2="238" gradientUnits="userSpaceOnUse">
      <stop offset="0" stop-color="#172f3c"/>
      <stop offset="0.52" stop-color="#1d4b55"/>
      <stop offset="1" stop-color="#102129"/>
    </linearGradient>
    <linearGradient id="paper" x1="78" y1="44" x2="177" y2="209" gradientUnits="userSpaceOnUse">
      <stop offset="0" stop-color="#fff8ea"/>
      <stop offset="1" stop-color="#ead9bd"/>
    </linearGradient>
    <linearGradient id="lens" x1="112" y1="95" x2="184" y2="178" gradientUnits="userSpaceOnUse">
      <stop offset="0" stop-color="#8debd7"/>
      <stop offset="1" stop-color="#3aa7a6"/>
    </linearGradient>
    <filter id="shadow" x="-20%" y="-20%" width="140%" height="150%" color-interpolation-filters="sRGB">
      <feDropShadow dx="0" dy="10" stdDeviation="14" flood-color="#071014" flood-opacity="0.34"/>
    </filter>
  </defs>
  <rect width="256" height="256" rx="54" fill="url(#bg)"/>
  <path d="M55 196c31-12 63-13 98-4 18 5 34 5 48 1" fill="none" stroke="#f6c06d" stroke-width="10" stroke-linecap="round" opacity="0.9"/>
  <g filter="url(#shadow)">
    <path d="M78 44h75l39 39v113c0 11-9 20-20 20H78c-11 0-20-9-20-20V64c0-11 9-20 20-20Z" fill="url(#paper)"/>
    <path d="M153 44v32c0 7 6 13 13 13h26" fill="#d9c3a4"/>
    <path d="M83 103h66M83 127h43M83 151h37" fill="none" stroke="#6f837d" stroke-width="9" stroke-linecap="round" opacity="0.72"/>
    <path d="M83 78h34" fill="none" stroke="#d68d5a" stroke-width="9" stroke-linecap="round"/>
    <circle cx="147" cy="148" r="36" fill="none" stroke="url(#lens)" stroke-width="15"/>
    <path d="m172 174 28 28" fill="none" stroke="#8debd7" stroke-width="15" stroke-linecap="round"/>
  </g>
  <path d="M58 64c13-9 27-14 43-16M38 112c8-14 18-25 31-34M199 47c10 8 18 18 24 31" fill="none" stroke="#ffffff" stroke-width="6" stroke-linecap="round" opacity="0.18"/>
</svg>
